<svg xmlns="http://www.w3.org/2000/svg" id="GLOCK_Logo_gruppiert_-_0-0-0-100" data-name="GLOCK Logo gruppiert - 0-0-0-100" viewBox="0 0 560.25 474.15"><defs><style>.cls-1{fill:#6f7379;}</style></defs><title>GLOCK-Logo_0-0-0-0</title><path class="cls-1" d="M340.42,233.41V200.25c0-9.18,7.82-16.34,17.82-16.34s17.84,7.16,17.84,16.34v33.16c0,9.17-7.81,16.35-17.84,16.35s-17.82-7.3-17.82-16.35M321.9,200.25v33.16c0,19.22,16.3,34.86,36.34,34.86s36.39-15.64,36.39-34.86V200.25c0-19.23-16.32-34.87-36.39-34.87S321.9,181,321.9,200.25" transform="translate(-142.01 -53.64)"/><path class="cls-1" d="M545.83,216.86l35.54-35.62a9.27,9.27,0,0,0-13.11-13.1l-38.14,38.25V174.71a9.28,9.28,0,0,0-18.56,0v84.37a9.28,9.28,0,0,0,18.56,0V232.62l2.59-2.75,35,34.87c3.61,3.62,10,4.51,13.59.9a9.26,9.26,0,0,0,0-13.1Z" transform="translate(-142.01 -53.64)"/><path class="cls-1" d="M481.38,232.33a9.53,9.53,0,0,0-11.25,5.75c-.25.57-.6,1.2-.85,1.77-2.72,5.93-9.17,9.91-16.37,9.91A18.56,18.56,0,0,1,440.24,245a15.61,15.61,0,0,1-5.18-11.61V200.26a15.61,15.61,0,0,1,5.18-11.61,18.61,18.61,0,0,1,12.67-4.76c7.2,0,13.65,4,16.37,9.91.25.57.6,1.2.85,1.77a9.53,9.53,0,0,0,11.25,5.75c4.91-1.38,8.07-6.35,6.07-12.14-4.76-13.79-17.67-23.13-33-23.76l-.23,0c-.43,0-.88,0-1.34,0q-1.86,0-3.66.18c-.39,0-.77.12-1.15.17-.81.1-1.62.2-2.41.35-.44.09-.86.21-1.29.31-.72.17-1.45.33-2.15.54-.45.13-.87.3-1.31.44-.67.23-1.34.45-2,.71-.44.17-.86.38-1.28.57-.63.28-1.26.56-1.87.87-.41.21-.81.46-1.21.68-.59.34-1.2.67-1.77,1-.39.25-.75.52-1.13.79-.55.38-1.11.77-1.65,1.18-.36.29-.7.6-1.05.89-.52.44-1,.87-1.52,1.32-.33.32-.64.66-1,1s-.93,1-1.37,1.45c-.3.35-.58.72-.88,1.08-.41.51-.82,1-1.2,1.55s-.54.79-.8,1.19-.71,1.07-1,1.62-.48.87-.71,1.32-.57,1.09-.83,1.66-.41,1-.6,1.44-.45,1.11-.65,1.68-.33,1.05-.48,1.58-.31,1.1-.45,1.67-.24,1.14-.34,1.72-.19,1.08-.26,1.63-.13,1.25-.17,1.88c0,.32-.08.63-.09.95s0,1,0,1.45v33.13c0,.5,0,1,0,1.45s.06.63.09.95c0,.63.09,1.26.17,1.88s.16,1.09.26,1.63.21,1.16.34,1.73.29,1.11.45,1.66.31,1.06.48,1.58.42,1.13.65,1.69.38,1,.6,1.43.54,1.12.83,1.67.46.88.71,1.31.68,1.09,1,1.62.51.8.8,1.19.79,1,1.2,1.55.58.73.88,1.08c.44.5.91,1,1.37,1.45s.64.67,1,1c.49.46,1,.88,1.52,1.32.35.3.69.6,1.05.89.54.41,1.1.8,1.65,1.18.38.27.74.54,1.13.79.57.37,1.18.7,1.77,1,.4.22.8.47,1.21.68.61.32,1.25.59,1.88.87.42.19.83.4,1.26.57.66.27,1.34.48,2,.71.43.15.86.31,1.3.44.7.21,1.43.37,2.15.54.43.1.85.22,1.29.31.79.15,1.6.25,2.41.36.38.05.76.12,1.15.16q1.8.18,3.66.18c.46,0,.91,0,1.34,0l.23,0c15.3-.63,28-9.84,33-23.76A9,9,0,0,0,481.38,232.33Z" transform="translate(-142.01 -53.64)"/><path class="cls-1" d="M267.74,53.64c-39.59,0-76.52,31.77-76.52,76.44V340.35a76.76,76.76,0,0,0,76.63,76.82H565.13c44.21,0,76.23-35.94,76.23-76.62V303.19a11.24,11.24,0,0,0-11.3-11.32H294.79V174.62a9.43,9.43,0,1,0-18.85,0V298.75c0,7.31,4.64,12,11.37,12H622.47c0,4,0,29.67,0,29.91,0,30.78-24.43,57.69-57.33,57.69H267.85c-29.33,0-57.77-23.26-57.77-57.78V130c0-30.19,25-57.47,57.77-57.47H565.11c33.26,0,57.26,27.38,57.26,57.63v15.54a9.5,9.5,0,0,0,19,0V130.13c0-44.58-37-76.49-76.25-76.49Z" transform="translate(-142.01 -53.64)"/></svg>